<svg class="svg-icon" style="width: 1em;height: 1em;vertical-align: middle;fill: currentColor;overflow: hidden;" viewBox="0 0 1024 1024" version="1.1" xmlns="http://www.w3.org/2000/svg"><path d="M64 192v572.992h896V192z m64 64h768v444.992H128z m256 64c-88 0-160 72-160 160s72 160 160 160a159.136 159.136 0 0 0 100-36l-40-50.016c-16.864 13.632-37.376 22.016-60 22.016-53.376 0-96-42.624-96-96s42.624-96 96-96c22.624 0 43.136 8.384 60 22.016l40-50.016A159.136 159.136 0 0 0 384 320z m320 0c-88 0-160 72-160 160s72 160 160 160a159.136 159.136 0 0 0 100-36l-40-50.016c-16.864 13.632-37.376 22.016-60 22.016-53.376 0-96-42.624-96-96s42.624-96 96-96c22.624 0 43.136 8.384 60 22.016l40-50.016A159.136 159.136 0 0 0 704 320z"  /></svg>